<?xml version="1.0" encoding="UTF-8" standalone="no"?>
<svg
   xmlns:dc="http://purl.org/dc/elements/1.1/"
   xmlns:cc="http://creativecommons.org/ns#"
   xmlns:rdf="http://www.w3.org/1999/02/22-rdf-syntax-ns#"
   xmlns:svg="http://www.w3.org/2000/svg"
   xmlns="http://www.w3.org/2000/svg"
   viewBox="0 0 357.33334 253.86665"
   height="253.86665"
   width="357.33334"
   xml:space="preserve"
   id="svg2"
   version="1.1"><metadata
     id="metadata8"><rdf:RDF><cc:Work
         rdf:about=""><dc:format>image/svg+xml</dc:format><dc:type
           rdf:resource="http://purl.org/dc/dcmitype/StillImage" /><dc:title></dc:title></cc:Work></rdf:RDF></metadata><defs
     id="defs6"><clipPath
       id="clipPath20"
       clipPathUnits="userSpaceOnUse"><path
         id="path18"
         d="M 1,0 H 268 V 190 H 1 Z" /></clipPath></defs><g
     transform="matrix(1.3333333,0,0,-1.3333333,0,253.86666)"
     id="g10"><g
       id="g12"><g
         transform="translate(0,-0.600006)"
         id="g14"><g
           id="g16" /><g
           id="g134"><g
             id="g132"
             clip-path="url(#clipPath20)"><g
               id="g130"><path
                 id="path22"
                 style="fill:#231f20;fill-opacity:1;fill-rule:nonzero;stroke:none"
                 d="m 197.598,131.406 c -2.91,0 -5.274,2.36 -5.274,5.27 v 48 c 0,2.91 2.364,5.269 5.274,5.269 2.914,0 5.273,-2.359 5.273,-5.269 v -48 c 0,-2.91 -2.359,-5.27 -5.273,-5.27 m -63.219,0 c -2.91,0 -5.274,2.36 -5.274,5.27 v 48 c 0,2.91 2.364,5.269 5.274,5.269 2.914,0 5.273,-2.359 5.273,-5.269 v -48 c 0,-2.91 -2.359,-5.27 -5.273,-5.27 m -63.828,0 c -2.91,0 -5.27,2.36 -5.27,5.27 v 48 c 0,2.91 2.36,5.269 5.27,5.269 2.914,0 5.273,-2.359 5.273,-5.269 v -48 c 0,-2.91 -2.359,-5.27 -5.273,-5.27 m -63.406,0 c -2.915,0 -5.274,2.36 -5.274,5.27 v 48 c 0,2.91 2.359,5.269 5.274,5.269 2.91,0 5.269,-2.359 5.269,-5.269 v -48 c 0,-2.91 -2.359,-5.27 -5.269,-5.27" /><path
                 id="path24"
                 style="fill:#231f20;fill-opacity:1;fill-rule:nonzero;stroke:none"
                 d="m 86.074,189.867 c -3.461,0 -6.273,-2.816 -6.273,-6.281 0,-3.465 2.812,-6.285 6.273,-6.285 3.461,0 6.278,2.82 6.278,6.285 0,3.465 -2.817,6.281 -6.278,6.281" /><path
                 id="path26"
                 style="fill:#231f20;fill-opacity:1;fill-rule:nonzero;stroke:none"
                 d="m 213.898,177.301 c 3.461,0 6.278,2.816 6.278,6.281 0,3.469 -2.817,6.285 -6.278,6.285 -3.46,0 -6.277,-2.816 -6.277,-6.285 0,-3.465 2.817,-6.281 6.277,-6.281" /><path
                 id="path28"
                 style="fill:#231f20;fill-opacity:1;fill-rule:nonzero;stroke:none"
                 d="m 213.898,173.984 c -3.46,0 -6.277,-2.816 -6.277,-6.281 0,-3.465 2.817,-6.285 6.277,-6.285 3.461,0 6.278,2.82 6.278,6.285 0,3.465 -2.817,6.281 -6.278,6.281" /><path
                 id="path30"
                 style="fill:#231f20;fill-opacity:1;fill-rule:nonzero;stroke:none"
                 d="m 4.191,114.09 c -1.214,0 -2.164,-1 -2.164,-2.278 V 98.523 c 0,-1.277 0.95,-2.277 2.164,-2.277 1.215,0 2.164,1 2.164,2.277 v 13.289 c 0,1.278 -0.949,2.278 -2.164,2.278" /><path
                 id="path32"
                 style="fill:#231f20;fill-opacity:1;fill-rule:nonzero;stroke:none"
                 d="m 41.117,107.238 c -2.82,0.766 -3.058,1.059 -3.058,1.813 0,0.625 0.605,1.011 1.574,1.011 0.926,0 1.926,-0.343 3.058,-1.054 0.364,-0.223 0.715,-0.328 1.106,-0.328 1.152,0 2.055,0.937 2.055,2.132 0,0.766 -0.364,1.446 -0.957,1.817 -1.524,1.031 -3.278,1.555 -5.215,1.555 -3.492,0 -5.93,-2.25 -5.93,-5.516 0,-3.719 2.5,-4.699 5.52,-5.523 2.644,-0.719 2.832,-1.118 2.832,-1.739 0,-1.023 -1.27,-1.133 -1.817,-1.133 -1.308,0 -2.527,0.461 -3.746,1.415 -0.379,0.281 -0.789,0.421 -1.25,0.421 -1.152,0 -2.055,-0.937 -2.055,-2.132 0,-0.688 0.317,-1.352 0.828,-1.735 1.766,-1.347 3.95,-2.09 6.153,-2.09 3.765,0 6.195,2.203 6.195,5.657 0,3.285 -2.113,4.546 -5.293,5.429" /><path
                 id="path34"
                 style="fill:#231f20;fill-opacity:1;fill-rule:nonzero;stroke:none"
                 d="M 62.605,113.945 H 52.527 c -1.117,0 -2.027,-0.957 -2.027,-2.133 0,-1.175 0.91,-2.132 2.027,-2.132 h 2.875 V 98.523 c 0,-1.277 0.95,-2.277 2.164,-2.277 1.215,0 2.168,1 2.168,2.277 v 11.157 h 2.871 c 1.122,0 2.032,0.957 2.032,2.132 0,1.176 -0.91,2.133 -2.032,2.133" /><path
                 id="path36"
                 style="fill:#231f20;fill-opacity:1;fill-rule:nonzero;stroke:none"
                 d="m 72.145,114.09 c -1.215,0 -2.168,-1 -2.168,-2.278 V 98.523 c 0,-1.277 0.953,-2.277 2.168,-2.277 1.21,0 2.164,1 2.164,2.277 v 13.289 c 0,1.278 -0.954,2.278 -2.164,2.278" /><path
                 id="path38"
                 style="fill:#231f20;fill-opacity:1;fill-rule:nonzero;stroke:none"
                 d="M 91.754,113.945 H 81.68 c -1.121,0 -2.032,-0.957 -2.032,-2.133 0,-1.175 0.911,-2.132 2.032,-2.132 h 2.871 V 98.523 c 0,-1.277 0.953,-2.277 2.164,-2.277 1.219,0 2.168,1 2.168,2.277 v 11.157 h 2.871 c 1.121,0 2.031,0.957 2.031,2.132 0,1.176 -0.91,2.133 -2.031,2.133" /><path
                 id="path40"
                 style="fill:#231f20;fill-opacity:1;fill-rule:nonzero;stroke:none"
                 d="m 111.102,114.09 c -1.215,0 -2.168,-1 -2.168,-2.278 v -7.859 c 0,-1.625 -0.508,-3.558 -2.938,-3.558 -2.434,0 -2.941,2 -2.941,3.675 v 7.742 c 0,1.278 -0.953,2.278 -2.164,2.278 -1.215,0 -2.168,-1 -2.168,-2.278 v -7.835 c 0,-4.989 2.636,-7.848 7.226,-7.848 4.649,0 7.317,2.902 7.317,7.969 v 7.714 c 0,1.278 -0.954,2.278 -2.164,2.278" /><path
                 id="path42"
                 style="fill:#231f20;fill-opacity:1;fill-rule:nonzero;stroke:none"
                 d="m 130.309,113.945 h -10.075 c -1.117,0 -2.031,-0.957 -2.031,-2.133 0,-1.175 0.914,-2.132 2.031,-2.132 h 2.871 V 98.523 c 0,-1.277 0.954,-2.277 2.168,-2.277 1.215,0 2.165,1 2.165,2.277 v 11.157 h 2.871 c 1.121,0 2.031,0.957 2.031,2.132 0,1.176 -0.91,2.133 -2.031,2.133" /><path
                 id="path44"
                 style="fill:#231f20;fill-opacity:1;fill-rule:nonzero;stroke:none"
                 d="m 11.98,73.355 c 0,-2.714 -1.718,-4.539 -4.281,-4.539 H 5.477 v 9.168 h 2.222 c 2.563,0 4.281,-1.839 4.281,-4.629 M 7.699,82.18 h -4.39 c -1.211,0 -2.164,-1 -2.164,-2.278 V 66.898 c 0,-1.273 0.953,-2.273 2.164,-2.273 h 4.39 c 5.082,0 8.77,3.691 8.77,8.824 0,5.059 -3.688,8.731 -8.77,8.731" /><path
                 id="path46"
                 style="fill:#231f20;fill-opacity:1;fill-rule:nonzero;stroke:none"
                 d="m 33.18,68.77 h -6.66 v 2.621 h 5.539 c 1.093,0 1.988,0.921 1.988,2.058 0,1.149 -0.895,2.086 -1.988,2.086 H 26.52 v 2.5 h 6.546 c 1.094,0 1.985,0.922 1.985,2.059 0,1.148 -0.891,2.086 -1.985,2.086 h -8.687 c -1.215,0 -2.164,-1 -2.164,-2.278 V 66.898 c 0,-1.273 0.949,-2.273 2.164,-2.273 h 8.801 c 1.093,0 1.984,0.926 1.984,2.059 0,1.152 -0.891,2.086 -1.984,2.086" /><path
                 id="path48"
                 style="fill:#231f20;fill-opacity:1;fill-rule:nonzero;stroke:none"
                 d="m 57.984,75.996 c 0,-1.199 -0.824,-1.914 -2.199,-1.914 H 52.73 v 3.902 h 2.989 c 1.031,0 2.265,-0.336 2.265,-1.988 m 1.481,-5.039 c 1.898,1.031 2.894,2.828 2.894,5.277 0,1.672 -0.504,3.098 -1.461,4.118 -1.128,1.195 -2.816,1.828 -4.89,1.828 h -5.442 c -1.214,0 -2.164,-1 -2.164,-2.278 V 66.758 c 0,-1.278 0.95,-2.278 2.164,-2.278 1.215,0 2.164,1 2.164,2.278 v 3.203 h 2.094 l 3.223,-4.348 c 0.562,-0.761 1.234,-1.133 2.058,-1.133 1.02,0 2.079,0.797 2.079,2.133 0,0.739 -0.321,1.231 -0.657,1.676 z" /><path
                 id="path50"
                 style="fill:#231f20;fill-opacity:1;fill-rule:nonzero;stroke:none"
                 d="m 79.113,68.77 h -6.656 v 2.621 h 5.539 c 1.094,0 1.984,0.921 1.984,2.058 0,1.149 -0.89,2.086 -1.984,2.086 h -5.539 v 2.5 h 6.547 c 1.094,0 1.984,0.922 1.984,2.059 0,1.148 -0.89,2.086 -1.984,2.086 h -8.688 c -1.214,0 -2.164,-1 -2.164,-2.278 V 66.898 c 0,-1.273 0.95,-2.273 2.164,-2.273 h 8.797 c 1.098,0 1.989,0.926 1.989,2.059 0,1.152 -0.891,2.086 -1.989,2.086" /><path
                 id="path52"
                 style="fill:#231f20;fill-opacity:1;fill-rule:nonzero;stroke:none"
                 d="m 99.043,70.316 c -0.477,0 -0.949,-0.179 -1.316,-0.507 -0.852,-0.723 -1.711,-1.207 -3.118,-1.207 -2.339,0 -4.105,2.062 -4.105,4.847 0,2.707 1.766,4.75 4.105,4.75 1.051,0 1.985,-0.347 2.953,-1.113 0.333,-0.227 0.719,-0.434 1.278,-0.434 1.183,0 2.144,1 2.144,2.227 0,0.711 -0.312,1.383 -0.839,1.801 -1.547,1.218 -3.297,1.785 -5.512,1.785 -4.914,0 -8.617,-3.899 -8.617,-9.063 v -0.047 c 0,-5.14 3.648,-9.015 8.48,-9.015 2.414,0 4.227,0.68 5.875,2.211 0.461,0.422 0.723,1.015 0.723,1.637 0,1.175 -0.918,2.128 -2.051,2.128" /><path
                 id="path54"
                 style="fill:#231f20;fill-opacity:1;fill-rule:nonzero;stroke:none"
                 d="m 118.77,82.324 c -1.215,0 -2.168,-1 -2.168,-2.277 v -4.465 h -5.477 v 4.465 c 0,1.277 -0.949,2.277 -2.164,2.277 -1.215,0 -2.164,-1 -2.164,-2.277 V 66.758 c 0,-1.278 0.949,-2.278 2.164,-2.278 1.215,0 2.164,1 2.164,2.278 v 4.558 h 5.477 v -4.558 c 0,-1.278 0.953,-2.278 2.168,-2.278 1.21,0 2.164,1 2.164,2.278 v 13.289 c 0,1.277 -0.954,2.277 -2.164,2.277" /><path
                 id="path56"
                 style="fill:#231f20;fill-opacity:1;fill-rule:nonzero;stroke:none"
                 d="m 138.336,68.77 h -6.656 v 2.621 h 5.539 c 1.093,0 1.984,0.921 1.984,2.058 0,1.149 -0.891,2.086 -1.984,2.086 h -5.539 v 2.5 h 6.547 c 1.093,0 1.984,0.922 1.984,2.059 0,1.148 -0.891,2.086 -1.984,2.086 h -8.688 c -1.215,0 -2.164,-1 -2.164,-2.278 V 66.898 c 0,-1.273 0.949,-2.273 2.164,-2.273 h 8.797 c 1.098,0 1.988,0.926 1.988,2.059 0,1.152 -0.89,2.086 -1.988,2.086" /><path
                 id="path58"
                 style="fill:#231f20;fill-opacity:1;fill-rule:nonzero;stroke:none"
                 d="m 155.516,75.996 c 0,-1.199 -0.821,-1.914 -2.2,-1.914 h -3.05 v 3.902 h 2.984 c 1.035,0 2.266,-0.336 2.266,-1.988 m 1.48,-5.039 c 1.899,1.031 2.899,2.828 2.899,5.277 0,1.672 -0.508,3.098 -1.465,4.118 -1.125,1.195 -2.817,1.828 -4.891,1.828 h -5.441 c -1.215,0 -2.164,-1 -2.164,-2.278 V 66.758 c 0,-1.278 0.949,-2.278 2.164,-2.278 1.214,0 2.168,1 2.168,2.278 v 3.203 h 2.089 l 3.227,-4.348 c 0.559,-0.761 1.23,-1.133 2.055,-1.133 1.019,0 2.078,0.797 2.078,2.133 0,0.739 -0.32,1.231 -0.653,1.676 z" /><path
                 id="path60"
                 style="fill:#231f20;fill-opacity:1;fill-rule:nonzero;stroke:none"
                 d="m 178.012,70.316 c -0.477,0 -0.946,-0.179 -1.317,-0.507 -0.855,-0.723 -1.711,-1.207 -3.117,-1.207 -2.34,0 -4.101,2.062 -4.101,4.847 0,2.707 1.761,4.75 4.101,4.75 1.055,0 1.984,-0.347 2.953,-1.113 0.336,-0.227 0.719,-0.434 1.281,-0.434 1.18,0 2.141,1 2.141,2.227 0,0.711 -0.312,1.383 -0.84,1.801 -1.543,1.218 -3.297,1.785 -5.511,1.785 -4.911,0 -8.614,-3.899 -8.614,-9.063 v -0.047 c 0,-5.14 3.645,-9.015 8.477,-9.015 2.418,0 4.23,0.68 5.875,2.211 0.461,0.422 0.726,1.015 0.726,1.637 0,1.175 -0.921,2.128 -2.054,2.128" /><path
                 id="path62"
                 style="fill:#231f20;fill-opacity:1;fill-rule:nonzero;stroke:none"
                 d="m 198.109,82.25 c -1.214,0 -2.168,-1 -2.168,-2.273 v -4.465 h -5.476 v 4.465 c 0,1.273 -0.953,2.273 -2.164,2.273 -1.215,0 -2.168,-1 -2.168,-2.273 V 66.684 c 0,-1.274 0.953,-2.274 2.168,-2.274 1.211,0 2.164,1 2.164,2.274 v 4.562 h 5.476 v -4.562 c 0,-1.274 0.954,-2.274 2.168,-2.274 1.211,0 2.164,1 2.164,2.274 v 13.293 c 0,1.273 -0.953,2.273 -2.164,2.273" /><path
                 id="path64"
                 style="fill:#231f20;fill-opacity:1;fill-rule:nonzero;stroke:none"
                 d="m 217.305,68.77 h -6.657 v 2.621 h 5.54 c 1.093,0 1.984,0.921 1.984,2.058 0,1.149 -0.891,2.086 -1.984,2.086 h -5.54 v 2.5 h 6.547 c 1.094,0 1.985,0.922 1.985,2.059 0,1.148 -0.891,2.086 -1.985,2.086 h -8.687 c -1.215,0 -2.164,-1 -2.164,-2.278 V 66.898 c 0,-1.273 0.949,-2.273 2.164,-2.273 h 8.797 c 1.097,0 1.988,0.926 1.988,2.059 0,1.152 -0.891,2.086 -1.988,2.086" /><path
                 id="path66"
                 style="fill:#231f20;fill-opacity:1;fill-rule:nonzero;stroke:none"
                 d="M 12.109,37.004 H 5.453 v 2.617 h 5.539 c 1.094,0 1.985,0.926 1.985,2.063 0,1.148 -0.891,2.086 -1.985,2.086 H 5.453 v 2.5 h 6.543 c 1.098,0 1.988,0.921 1.988,2.058 0,1.149 -0.89,2.086 -1.988,2.086 H 3.309 c -1.215,0 -2.164,-1 -2.164,-2.277 V 35.133 c 0,-1.274 0.949,-2.274 2.164,-2.274 h 8.8 c 1.094,0 1.985,0.922 1.985,2.059 0,1.152 -0.891,2.086 -1.985,2.086" /><path
                 id="path68"
                 style="fill:#231f20;fill-opacity:1;fill-rule:nonzero;stroke:none"
                 d="m 32.371,50.555 c -1.18,0 -2.141,-1.008 -2.141,-2.25 v -7.223 l -5.855,8.176 c -0.453,0.617 -1.063,1.25 -2.145,1.25 h -0.359 c -1.215,0 -2.164,-1 -2.164,-2.274 V 34.965 c 0,-1.238 0.961,-2.25 2.141,-2.25 1.183,0 2.144,1.012 2.144,2.25 v 7.562 l 6.098,-8.511 c 0.453,-0.621 1.062,-1.254 2.148,-1.254 h 0.11 c 1.214,0 2.168,1 2.168,2.277 v 13.266 c 0,1.242 -0.961,2.25 -2.145,2.25" /><path
                 id="path70"
                 style="fill:#231f20;fill-opacity:1;fill-rule:nonzero;stroke:none"
                 d="m 26.004,114.184 c -1.18,0 -2.141,-1.012 -2.141,-2.254 v -7.223 l -5.855,8.176 c -0.453,0.621 -1.063,1.254 -2.145,1.254 h -0.359 c -1.215,0 -2.164,-1 -2.164,-2.278 V 98.594 c 0,-1.242 0.961,-2.25 2.14,-2.25 1.184,0 2.145,1.008 2.145,2.25 v 7.558 l 6.098,-8.511 c 0.453,-0.618 1.062,-1.25 2.148,-1.25 h 0.109 c 1.215,0 2.168,1 2.168,2.273 v 13.266 c 0,1.242 -0.96,2.254 -2.144,2.254" /><path
                 id="path72"
                 style="fill:#231f20;fill-opacity:1;fill-rule:nonzero;stroke:none"
                 d="m 50.902,50.555 c -1.214,0 -2.164,-1 -2.164,-2.274 V 34.992 c 0,-1.277 0.95,-2.277 2.164,-2.277 1.215,0 2.164,1 2.164,2.277 v 13.289 c 0,1.274 -0.949,2.274 -2.164,2.274" /><path
                 id="path74"
                 style="fill:#231f20;fill-opacity:1;fill-rule:nonzero;stroke:none"
                 d="m 84.188,50.484 c -1.211,0 -2.165,-1 -2.165,-2.273 V 34.918 c 0,-1.273 0.954,-2.273 2.165,-2.273 1.214,0 2.167,1 2.167,2.273 v 13.293 c 0,1.273 -0.953,2.273 -2.167,2.273" /><path
                 id="path76"
                 style="fill:#231f20;fill-opacity:1;fill-rule:nonzero;stroke:none"
                 d="m 73.211,50.555 c -1.184,0 -2.145,-1.008 -2.145,-2.25 v -7.223 l -5.851,8.176 c -0.453,0.617 -1.063,1.25 -2.149,1.25 h -0.359 c -1.211,0 -2.164,-1 -2.164,-2.274 V 34.965 c 0,-1.238 0.961,-2.25 2.145,-2.25 1.179,0 2.14,1.012 2.14,2.25 v 7.562 l 6.102,-8.511 c 0.453,-0.621 1.062,-1.254 2.148,-1.254 h 0.11 c 1.214,0 2.167,1 2.167,2.277 v 13.266 c 0,1.242 -0.96,2.25 -2.144,2.25" /><path
                 id="path78"
                 style="fill:#231f20;fill-opacity:1;fill-rule:nonzero;stroke:none"
                 d="m 109.32,41.59 c 0,-2.711 -1.832,-4.754 -4.258,-4.754 -2.457,0 -4.304,2.062 -4.304,4.848 0,2.707 1.828,4.75 4.258,4.75 2.457,0 4.304,-2.063 4.304,-4.797 z m -4.258,9.109 c -4.933,0 -8.792,-3.98 -8.792,-9.109 0,-5.141 3.757,-9.02 8.746,-9.02 4.929,0 8.793,3.985 8.793,9.114 0,5.14 -3.762,9.015 -8.747,9.015" /><path
                 id="path80"
                 style="fill:#231f20;fill-opacity:1;fill-rule:nonzero;stroke:none"
                 d="m 129.602,44.23 c 0,-1.199 -0.825,-1.914 -2.204,-1.914 h -3.05 v 3.903 h 2.984 c 1.035,0 2.27,-0.336 2.27,-1.989 m 1.48,-5.039 c 1.895,1.032 2.895,2.829 2.895,5.278 0,1.676 -0.508,3.097 -1.465,4.113 -1.125,1.199 -2.813,1.832 -4.887,1.832 h -5.441 c -1.215,0 -2.164,-1 -2.164,-2.277 V 34.992 c 0,-1.277 0.949,-2.277 2.164,-2.277 1.214,0 2.164,1 2.164,2.277 v 3.203 h 2.09 l 3.226,-4.347 c 0.563,-0.762 1.234,-1.133 2.059,-1.133 1.019,0 2.074,0.797 2.074,2.133 0,0.734 -0.32,1.226 -0.652,1.675 z" /><path
                 id="path82"
                 style="fill:#231f20;fill-opacity:1;fill-rule:nonzero;stroke:none"
                 d="m 154.574,50.508 h -0.379 c -0.836,0 -1.484,-0.387 -1.925,-1.149 l -3.809,-6.578 -3.781,6.555 c -0.434,0.754 -1.125,1.172 -1.95,1.172 h -0.378 c -1.215,0 -2.164,-1 -2.164,-2.274 V 34.941 c 0,-1.246 0.929,-2.226 2.117,-2.226 1.183,0 2.144,1 2.144,2.226 v 6.719 l 2.16,-3.547 c 0.473,-0.75 1.082,-1.133 1.809,-1.133 0.727,0 1.336,0.383 1.809,1.141 l 2.207,3.613 v -6.742 c 0,-1.258 0.961,-2.277 2.14,-2.277 1.215,0 2.168,1 2.168,2.277 v 13.242 c 0,1.274 -0.953,2.274 -2.168,2.274" /><path
                 id="path84"
                 style="fill:#231f20;fill-opacity:1;fill-rule:nonzero;stroke:none"
                 d="m 171.793,40.719 h -3.043 l 1.52,3.859 z m 6.5,-4.891 -5.465,13.125 c -0.469,1.109 -1.32,1.723 -2.402,1.723 h -0.199 c -1.079,0 -1.961,-0.629 -2.422,-1.723 L 162.34,35.828 c -0.117,-0.273 -0.235,-0.601 -0.235,-0.957 0,-1.207 0.891,-2.156 2.032,-2.156 0.886,0 1.636,0.531 1.996,1.422 l 0.988,2.461 h 6.301 l 0.941,-2.348 c 0.407,-0.988 1.141,-1.535 2.067,-1.535 1.164,0 2.074,0.969 2.074,2.203 0,0.281 -0.066,0.57 -0.211,0.91" /><path
                 id="path86"
                 style="fill:#231f20;fill-opacity:1;fill-rule:nonzero;stroke:none"
                 d="m 193.062,50.414 h -10.074 c -1.121,0 -2.031,-0.957 -2.031,-2.133 0,-1.176 0.91,-2.133 2.031,-2.133 h 2.871 V 34.992 c 0,-1.277 0.953,-2.277 2.164,-2.277 1.215,0 2.168,1 2.168,2.277 v 11.156 h 2.871 c 1.122,0 2.032,0.957 2.032,2.133 0,1.176 -0.91,2.133 -2.032,2.133" /><path
                 id="path88"
                 style="fill:#231f20;fill-opacity:1;fill-rule:nonzero;stroke:none"
                 d="m 202.602,50.555 c -1.215,0 -2.168,-1 -2.168,-2.274 V 34.992 c 0,-1.277 0.953,-2.277 2.168,-2.277 1.21,0 2.164,1 2.164,2.277 v 13.289 c 0,1.274 -0.954,2.274 -2.164,2.274" /><path
                 id="path90"
                 style="fill:#231f20;fill-opacity:1;fill-rule:nonzero;stroke:none"
                 d="M 223.719,41.637 V 41.59 c 0,-4.524 -3.547,-4.754 -4.262,-4.754 -2.453,0 -4.305,2.066 -4.305,4.848 0,2.707 1.832,4.75 4.262,4.75 2.453,0 4.305,-2.063 4.305,-4.797 m -4.262,9.062 c -4.93,0 -8.793,-3.98 -8.793,-9.062 V 41.59 c 0,-2.539 0.938,-4.867 2.637,-6.559 1.594,-1.586 3.75,-2.457 6.07,-2.457 h 0.043 c 5.262,0.024 8.793,3.664 8.793,9.11 0,5.14 -3.762,9.015 -8.75,9.015" /><path
                 id="path92"
                 style="fill:#231f20;fill-opacity:1;fill-rule:nonzero;stroke:none"
                 d="m 246.082,50.555 c -1.215,0 -2.164,-1 -2.164,-2.274 v -7.859 c 0,-1.625 -0.512,-3.563 -2.941,-3.563 -2.43,0 -2.942,2.004 -2.942,3.68 v 7.742 c 0,1.274 -0.949,2.274 -2.164,2.274 -1.215,0 -2.164,-1 -2.164,-2.274 v -7.836 c 0,-4.988 2.633,-7.847 7.227,-7.847 4.644,0 7.312,2.902 7.312,7.964 v 7.719 c 0,1.274 -0.949,2.274 -2.164,2.274" /><path
                 id="path94"
                 style="fill:#231f20;fill-opacity:1;fill-rule:nonzero;stroke:none"
                 d="m 265.402,37.004 h -6.656 v 2.617 h 5.539 c 1.094,0 1.985,0.926 1.985,2.063 0,1.148 -0.891,2.086 -1.985,2.086 h -5.539 v 2.5 h 6.547 c 1.094,0 1.984,0.921 1.984,2.058 0,1.149 -0.89,2.086 -1.984,2.086 h -8.688 c -1.214,0 -2.164,-1 -2.164,-2.277 V 35.133 c 0,-1.274 0.95,-2.274 2.164,-2.274 h 8.797 c 1.098,0 1.989,0.922 1.989,2.059 0,1.152 -0.891,2.086 -1.989,2.086" /><path
                 id="path96"
                 style="fill:#231f20;fill-opacity:1;fill-rule:nonzero;stroke:none"
                 d="m 227.305,33.988 c -1.293,0 -2.34,-1.05 -2.34,-2.343 0,-1.29 1.047,-2.34 2.34,-2.34 1.289,0 2.34,1.05 2.34,2.34 0,1.293 -1.051,2.343 -2.34,2.343" /><path
                 id="path98"
                 style="fill:#231f20;fill-opacity:1;fill-rule:nonzero;stroke:none"
                 d="m 89.91,45.875 c 1.293,0 2.344,1.051 2.344,2.34 0,1.293 -1.051,2.34 -2.344,2.34 -1.289,0 -2.34,-1.047 -2.34,-2.34 0,-1.289 1.051,-2.34 2.34,-2.34" /><path
                 id="path100"
                 style="fill:#231f20;fill-opacity:1;fill-rule:nonzero;stroke:none"
                 d="m 89.91,44.633 c -1.289,0 -2.34,-1.047 -2.34,-2.34 0,-1.289 1.051,-2.34 2.34,-2.34 1.293,0 2.344,1.051 2.344,2.34 0,1.293 -1.051,2.34 -2.344,2.34" /><path
                 id="path102"
                 style="fill:#231f20;fill-opacity:1;fill-rule:nonzero;stroke:none"
                 d="m 3.309,18.828 c -1.215,0 -2.164,-1 -2.164,-2.277 V 3.262 c 0,-1.278 0.949,-2.278 2.164,-2.278 1.214,0 2.164,1 2.164,2.278 v 13.289 c 0,1.277 -0.95,2.277 -2.164,2.277" /><path
                 id="path104"
                 style="fill:#231f20;fill-opacity:1;fill-rule:nonzero;stroke:none"
                 d="m 9.031,14.215 c 1.293,0 2.34,1.051 2.34,2.34 0,1.293 -1.047,2.343 -2.34,2.343 -1.289,0 -2.34,-1.05 -2.34,-2.343 0,-1.289 1.051,-2.34 2.34,-2.34" /><path
                 id="path106"
                 style="fill:#231f20;fill-opacity:1;fill-rule:nonzero;stroke:none"
                 d="m 9.031,12.887 c -1.289,0 -2.34,-1.047 -2.34,-2.34 0,-1.289 1.051,-2.34 2.34,-2.34 1.293,0 2.34,1.051 2.34,2.34 0,1.293 -1.047,2.34 -2.34,2.34" /><path
                 id="path108"
                 style="fill:#231f20;fill-opacity:1;fill-rule:nonzero;stroke:none"
                 d="m 28.867,9.824 c 0,-2.711 -1.832,-4.754 -4.262,-4.754 -2.453,0 -4.304,2.063 -4.304,4.848 0,2.707 1.832,4.75 4.261,4.75 2.454,0 4.305,-2.063 4.305,-4.797 z m -4.262,9.11 c -4.929,0 -8.793,-3.981 -8.793,-9.063 V 9.824 c 0,-5.14 3.762,-9.019 8.75,-9.019 4.93,0 8.793,3.984 8.793,9.113 0,5.141 -3.761,9.016 -8.75,9.016" /><path
                 id="path110"
                 style="fill:#231f20;fill-opacity:1;fill-rule:nonzero;stroke:none"
                 d="m 51.766,18.789 c -1.18,0 -2.141,-1.008 -2.141,-2.25 V 9.316 l -5.852,8.176 c -0.457,0.617 -1.066,1.25 -2.148,1.25 h -0.359 c -1.215,0 -2.164,-1 -2.164,-2.273 V 3.199 c 0,-1.238 0.96,-2.25 2.14,-2.25 1.184,0 2.145,1.012 2.145,2.25 v 7.559 L 49.484,2.25 c 0.454,-0.621 1.063,-1.254 2.149,-1.254 h 0.113 c 1.211,0 2.164,1 2.164,2.277 v 13.266 c 0,1.242 -0.961,2.25 -2.144,2.25" /><path
                 id="path112"
                 style="fill:#231f20;fill-opacity:1;fill-rule:nonzero;stroke:none"
                 d="m 71.184,9.824 c 0,-2.715 -1.719,-4.539 -4.282,-4.539 H 64.68 v 9.168 h 2.222 c 2.563,0 4.282,-1.84 4.282,-4.629 m -4.282,8.824 h -4.39 c -1.211,0 -2.164,-1 -2.164,-2.277 V 3.367 c 0,-1.273 0.953,-2.273 2.164,-2.273 h 4.39 c 5.082,0 8.77,3.691 8.77,8.824 0,5.059 -3.688,8.73 -8.77,8.73" /><path
                 id="path114"
                 style="fill:#231f20;fill-opacity:1;fill-rule:nonzero;stroke:none"
                 d="m 115.848,18.742 h -0.383 c -0.836,0 -1.485,-0.387 -1.926,-1.148 l -3.805,-6.578 -3.781,6.554 c -0.433,0.754 -1.129,1.172 -1.949,1.172 h -0.383 c -1.215,0 -2.164,-1 -2.164,-2.273 V 3.176 c 0,-1.25 0.93,-2.227 2.121,-2.227 1.18,0 2.141,1 2.141,2.227 v 6.719 l 2.164,-3.547 c 0.472,-0.75 1.082,-1.137 1.805,-1.137 0.738,0 1.328,0.375 1.812,1.144 l 2.203,3.61 V 3.227 c 0,-1.258 0.961,-2.278 2.145,-2.278 1.214,0 2.164,1 2.164,2.278 v 13.242 c 0,1.273 -0.95,2.273 -2.164,2.273" /><path
                 id="path116"
                 style="fill:#231f20;fill-opacity:1;fill-rule:nonzero;stroke:none"
                 d="m 135.414,5.238 h -6.656 v 2.617 h 5.539 c 1.094,0 1.984,0.926 1.984,2.063 0,1.148 -0.89,2.086 -1.984,2.086 h -5.539 v 2.5 h 6.547 c 1.093,0 1.984,0.922 1.984,2.058 0,1.149 -0.891,2.086 -1.984,2.086 h -8.692 c -1.211,0 -2.164,-1 -2.164,-2.277 V 3.367 c 0,-1.273 0.953,-2.273 2.164,-2.273 h 8.801 c 1.098,0 1.988,0.922 1.988,2.058 0,1.153 -0.89,2.086 -1.988,2.086" /><path
                 id="path118"
                 style="fill:#231f20;fill-opacity:1;fill-rule:nonzero;stroke:none"
                 d="m 155.68,18.789 c -1.184,0 -2.145,-1.008 -2.145,-2.25 V 9.316 l -5.851,8.176 c -0.454,0.617 -1.063,1.25 -2.149,1.25 h -0.359 c -1.211,0 -2.164,-1 -2.164,-2.273 V 3.199 c 0,-1.238 0.961,-2.25 2.144,-2.25 1.18,0 2.141,1.012 2.141,2.25 v 7.559 l 6.101,-8.508 c 0.454,-0.621 1.063,-1.254 2.149,-1.254 h 0.109 c 1.215,0 2.164,1 2.164,2.277 v 13.266 c 0,1.242 -0.961,2.25 -2.14,2.25" /><path
                 id="path120"
                 style="fill:#231f20;fill-opacity:1;fill-rule:nonzero;stroke:none"
                 d="m 175.113,18.648 h -10.078 c -1.117,0 -2.027,-0.957 -2.027,-2.132 0,-1.176 0.91,-2.133 2.027,-2.133 h 2.875 V 3.223 c 0,-1.274 0.949,-2.274 2.164,-2.274 1.215,0 2.168,1 2.168,2.274 v 11.16 h 2.871 c 1.121,0 2.032,0.957 2.032,2.133 0,1.175 -0.911,2.132 -2.032,2.132" /><path
                 id="path122"
                 style="fill:#231f20;fill-opacity:1;fill-rule:nonzero;stroke:none"
                 d="m 189.266,8.953 h -3.047 l 1.523,3.859 z m 6.496,-4.891 -5.465,13.126 c -0.469,1.109 -1.32,1.722 -2.399,1.722 h -0.203 c -1.078,0 -1.961,-0.629 -2.422,-1.726 L 179.809,4.062 c -0.114,-0.273 -0.235,-0.601 -0.235,-0.957 0,-1.21 0.891,-2.156 2.031,-2.156 0.887,0 1.637,0.531 2,1.422 l 0.985,2.461 h 6.301 l 0.941,-2.348 c 0.406,-0.988 1.145,-1.535 2.066,-1.535 1.164,0 2.075,0.969 2.075,2.203 0,0.282 -0.067,0.571 -0.211,0.91" /><path
                 id="path124"
                 style="fill:#231f20;fill-opacity:1;fill-rule:nonzero;stroke:none"
                 d="m 89.191,8.965 h -3.046 l 1.523,3.859 z m 6.497,-4.891 -5.465,13.125 c -0.469,1.11 -1.321,1.723 -2.399,1.723 h -0.203 c -1.078,0 -1.961,-0.629 -2.422,-1.723 L 79.738,4.074 C 79.621,3.801 79.5,3.473 79.5,3.117 c 0,-1.207 0.895,-2.156 2.031,-2.156 0.891,0 1.637,0.531 2,1.422 l 0.985,2.461 h 6.3 l 0.942,-2.348 c 0.41,-0.988 1.144,-1.535 2.066,-1.535 1.164,0 2.078,0.969 2.078,2.203 0,0.281 -0.07,0.57 -0.214,0.91" /><path
                 id="path126"
                 style="fill:#231f20;fill-opacity:1;fill-rule:nonzero;stroke:none"
                 d="m 211.629,5.309 h -5.941 v 11.207 c 0,1.277 -0.95,2.273 -2.165,2.273 -1.214,0 -2.164,-0.996 -2.164,-2.273 V 3.367 c 0,-1.273 0.95,-2.273 2.164,-2.273 h 8.106 c 1.129,0 2.012,0.926 2.012,2.109 0,1.18 -0.883,2.106 -2.012,2.106" /><path
                 id="path128"
                 style="fill:#231f20;fill-opacity:1;fill-rule:nonzero;stroke:none"
                 d="m 229.742,5.238 h -6.656 v 2.617 h 5.539 c 1.094,0 1.984,0.926 1.984,2.063 0,1.148 -0.89,2.086 -1.984,2.086 h -5.539 v 2.5 h 6.543 c 1.098,0 1.988,0.922 1.988,2.058 0,1.149 -0.89,2.086 -1.988,2.086 h -8.688 c -1.214,0 -2.164,-1 -2.164,-2.277 V 3.367 c 0,-1.273 0.95,-2.273 2.164,-2.273 h 8.801 c 1.094,0 1.985,0.922 1.985,2.058 0,1.153 -0.891,2.086 -1.985,2.086" /></g></g></g></g></g></g></svg>